{
	"asset":{
		"generator":"Khronos glTF Blender I/O v4.2.57",
		"version":"2.0"
	},
	"scene":0,
	"scenes":[
		{
			"name":"Scene",
			"nodes":[
				0
			]
		}
	],
	"nodes":[
		{
			"mesh":0,
			"name":"mug_low",
			"rotation":[
				0.5,
				-0.5,
				0.5,
				0.5000000596046448
			]
		}
	],
	"materials":[
		{
			"doubleSided":true,
			"name":"Mug",
			"pbrMetallicRoughness":{
				"baseColorFactor":[
					0.800000011920929,
					0.800000011920929,
					0.800000011920929,
					1
				],
				"metallicFactor":0,
				"roughnessFactor":0.5
			}
		}
	],
	"meshes":[
		{
			"name":"mug_low",
			"primitives":[
				{
					"attributes":{
						"POSITION":0,
						"NORMAL":1,
						"TEXCOORD_0":2
					},
					"indices":3,
					"material":0
				}
			]
		}
	],
	"accessors":[
		{
			"bufferView":0,
			"componentType":5126,
			"count":1012,
			"max":[
				0.8543750047683716,
				0.8718510270118713,
				0.9965490102767944
			],
			"min":[
				-0.8543750047683716,
				-1.4501429796218872,
				-0.9161440134048462
			],
			"type":"VEC3"
		},
		{
			"bufferView":1,
			"componentType":5126,
			"count":1012,
			"type":"VEC3"
		},
		{
			"bufferView":2,
			"componentType":5126,
			"count":1012,
			"type":"VEC2"
		},
		{
			"bufferView":3,
			"componentType":5123,
			"count":4461,
			"type":"SCALAR"
		}
	],
	"bufferViews":[
		{
			"buffer":0,
			"byteLength":12144,
			"byteOffset":0,
			"target":34962
		},
		{
			"buffer":0,
			"byteLength":12144,
			"byteOffset":12144,
			"target":34962
		},
		{
			"buffer":0,
			"byteLength":8096,
			"byteOffset":24288,
			"target":34962
		},
		{
			"buffer":0,
			"byteLength":8922,
			"byteOffset":32384,
			"target":34963
		}
	],
	"buffers":[
		{
			"byteLength":41308,
			"uri":"test_scene.bin"
		}
	]
}
