{
	"asset":{
		"generator":"Khronos glTF Blender I/O v4.2.57",
		"version":"2.0"
	},
	"scene":0,
	"scenes":[
		{
			"name":"Scene",
			"nodes":[
				0,
				1,
				2,
				3
			]
		}
	],
	"nodes":[
		{
			"mesh":0,
			"name":"Suzanne"
		},
		{
			"mesh":1,
			"name":"Cube",
			"scale":[
				0.3136487305164337,
				0.3136487305164337,
				0.3136487305164337
			],
			"translation":[
				-3.2365400791168213,
				0.3527453541755676,
				0.3530764579772949
			]
		},
		{
			"mesh":2,
			"name":"Sphere",
			"translation":[
				3.0554213523864746,
				0.43278855085372925,
				-1.725628137588501
			]
		},
		{
			"mesh":3,
			"name":"Torus",
			"scale":[
				1.0741757154464722,
				1.0741757154464722,
				1.0741757154464722
			],
			"translation":[
				-0.30460125207901,
				2.6296238899230957,
				-1.3045533895492554
			]
		}
	],
	"meshes":[
		{
			"name":"Suzanne",
			"primitives":[
				{
					"attributes":{
						"POSITION":0,
						"NORMAL":1,
						"TEXCOORD_0":2
					},
					"indices":3
				}
			]
		},
		{
			"name":"Cube",
			"primitives":[
				{
					"attributes":{
						"POSITION":4,
						"NORMAL":5,
						"TEXCOORD_0":6
					},
					"indices":7
				}
			]
		},
		{
			"name":"Sphere",
			"primitives":[
				{
					"attributes":{
						"POSITION":8,
						"NORMAL":9,
						"TEXCOORD_0":10
					},
					"indices":11
				}
			]
		},
		{
			"name":"Torus",
			"primitives":[
				{
					"attributes":{
						"POSITION":12,
						"NORMAL":13,
						"TEXCOORD_0":14
					},
					"indices":15
				}
			]
		}
	],
	"accessors":[
		{
			"bufferView":0,
			"componentType":5126,
			"count":555,
			"max":[
				1.3671875,
				0.984375,
				0.8515625
			],
			"min":[
				-1.3671875,
				-0.984375,
				-0.8515625
			],
			"type":"VEC3"
		},
		{
			"bufferView":1,
			"componentType":5126,
			"count":555,
			"type":"VEC3"
		},
		{
			"bufferView":2,
			"componentType":5126,
			"count":555,
			"type":"VEC2"
		},
		{
			"bufferView":3,
			"componentType":5123,
			"count":2904,
			"type":"SCALAR"
		},
		{
			"bufferView":4,
			"componentType":5126,
			"count":14,
			"max":[
				1,
				1,
				1
			],
			"min":[
				-1,
				-1,
				-1
			],
			"type":"VEC3"
		},
		{
			"bufferView":5,
			"componentType":5126,
			"count":14,
			"type":"VEC3"
		},
		{
			"bufferView":6,
			"componentType":5126,
			"count":14,
			"type":"VEC2"
		},
		{
			"bufferView":7,
			"componentType":5123,
			"count":36,
			"type":"SCALAR"
		},
		{
			"bufferView":8,
			"componentType":5126,
			"count":559,
			"max":[
				0.9999997019767761,
				1,
				0.9999993443489075
			],
			"min":[
				-0.9999990463256836,
				-1,
				-1
			],
			"type":"VEC3"
		},
		{
			"bufferView":9,
			"componentType":5126,
			"count":559,
			"type":"VEC3"
		},
		{
			"bufferView":10,
			"componentType":5126,
			"count":559,
			"type":"VEC2"
		},
		{
			"bufferView":11,
			"componentType":5123,
			"count":2880,
			"type":"SCALAR"
		},
		{
			"bufferView":12,
			"componentType":5126,
			"count":637,
			"max":[
				1.25,
				0.25,
				1.25
			],
			"min":[
				-1.25,
				-0.25,
				-1.25
			],
			"type":"VEC3"
		},
		{
			"bufferView":13,
			"componentType":5126,
			"count":637,
			"type":"VEC3"
		},
		{
			"bufferView":14,
			"componentType":5126,
			"count":637,
			"type":"VEC2"
		},
		{
			"bufferView":15,
			"componentType":5123,
			"count":3456,
			"type":"SCALAR"
		}
	],
	"bufferViews":[
		{
			"buffer":0,
			"byteLength":6660,
			"byteOffset":0,
			"target":34962
		},
		{
			"buffer":0,
			"byteLength":6660,
			"byteOffset":6660,
			"target":34962
		},
		{
			"buffer":0,
			"byteLength":4440,
			"byteOffset":13320,
			"target":34962
		},
		{
			"buffer":0,
			"byteLength":5808,
			"byteOffset":17760,
			"target":34963
		},
		{
			"buffer":0,
			"byteLength":168,
			"byteOffset":23568,
			"target":34962
		},
		{
			"buffer":0,
			"byteLength":168,
			"byteOffset":23736,
			"target":34962
		},
		{
			"buffer":0,
			"byteLength":112,
			"byteOffset":23904,
			"target":34962
		},
		{
			"buffer":0,
			"byteLength":72,
			"byteOffset":24016,
			"target":34963
		},
		{
			"buffer":0,
			"byteLength":6708,
			"byteOffset":24088,
			"target":34962
		},
		{
			"buffer":0,
			"byteLength":6708,
			"byteOffset":30796,
			"target":34962
		},
		{
			"buffer":0,
			"byteLength":4472,
			"byteOffset":37504,
			"target":34962
		},
		{
			"buffer":0,
			"byteLength":5760,
			"byteOffset":41976,
			"target":34963
		},
		{
			"buffer":0,
			"byteLength":7644,
			"byteOffset":47736,
			"target":34962
		},
		{
			"buffer":0,
			"byteLength":7644,
			"byteOffset":55380,
			"target":34962
		},
		{
			"buffer":0,
			"byteLength":5096,
			"byteOffset":63024,
			"target":34962
		},
		{
			"buffer":0,
			"byteLength":6912,
			"byteOffset":68120,
			"target":34963
		}
	],
	"buffers":[
		{
			"byteLength":75032,
			"uri":"test_scene.bin"
		}
	]
}
